{"asset":{"version":"2.0","generator":"THREE.GLTFExporter"},"scenes":[{"name":"default","nodes":[0]}],"scene":0,"nodes":[{"name":"default","mesh":0}],"bufferViews":[{"buffer":0,"byteOffset":0,"byteLength":8544,"target":34962,"byteStride":12},{"buffer":0,"byteOffset":8544,"byteLength":8544,"target":34962,"byteStride":12},{"buffer":0,"byteOffset":17088,"byteLength":5696,"target":34962,"byteStride":8},{"buffer":0,"byteOffset":22784,"byteLength":8544,"target":34962,"byteStride":12},{"buffer":0,"byteOffset":31328,"byteLength":5696,"target":34962,"byteStride":8},{"buffer":0,"byteOffset":37024,"byteLength":2292,"target":34963}],"buffers":[{"byteLength":39316,"uri":"data:application/octet-stream;base64,"}],"accessors":[{"bufferView":0,"componentType":5126,"count":712,"max":[9.75,2.25,0.25],"min":[-2.75,-1.1057538986206055,-8.25],"type":"VEC3"},{"bufferView":1,"componentType":5126,"count":712,"max":[1,1,1],"min":[-1,-1,-1],"type":"VEC3"},{"bufferView":2,"componentType":5126,"count":712,"max":[0.13736867904663086,0.625],"min":[0,0],"type":"VEC2"},{"bufferView":3,"componentType":5126,"count":712,"max":[1,1,1],"min":[0.2746773362159729,0.10224173963069916,0.03189603239297867],"type":"VEC3"},{"bufferView":4,"componentType":5126,"count":712,"max":[-1,0],"min":[-1,0],"type":"VEC2"},{"bufferView":5,"componentType":5123,"count":1146,"max":[711],"min":[0],"type":"SCALAR"}],"materials":[{"pbrMetallicRoughness":{"metallicFactor":0,"roughnessFactor":0.9,"baseColorTexture":{"index":0}},"alphaMode":"MASK","alphaCutoff":0.01,"extensions":{"KHR_materials_unlit":{}}}],"textures":[{"sampler":0,"source":0,"name":"texture_1"}],"samplers":[{"magFilter":9728,"minFilter":9728,"wrapS":33071,"wrapT":33071}],"images":[{"mimeType":"image/png","uri":"data:image/png;base64,"}],"meshes":[{"primitives":[{"mode":4,"attributes":{"POSITION":0,"NORMAL":1,"TEXCOORD_0":2,"COLOR_0":3,"_UVANIMATION":4},"indices":5,"material":0}]}],"extensionsUsed":["KHR_materials_unlit"]}