{"asset":{"version":"2.0","generator":"THREE.GLTFExporter"},"scenes":[{"name":"default","nodes":[0]}],"scene":0,"nodes":[{"name":"Boat","extras":{"data":{"name":"Boat","points":[{"name":"Origin","pos":{"x":0,"y":0,"z":0}}],"billboard":{"enabled":false,"y":false},"custom":[],"instance":{"name":"Boat","uuid":"FC42B80C-EC85-4B7A-BE26-079B451D76D7","parent":null,"pos":{"x":0,"y":0,"z":0},"rot":{"x":0,"y":0,"z":0,"order":"XYZ"},"sca":{"x":1,"y":1,"z":1},"custom":[]}}},"mesh":0}],"bufferViews":[{"buffer":0,"byteOffset":0,"byteLength":1596,"target":34962,"byteStride":12},{"buffer":0,"byteOffset":1596,"byteLength":1596,"target":34962,"byteStride":12},{"buffer":0,"byteOffset":3192,"byteLength":1064,"target":34962,"byteStride":8},{"buffer":0,"byteOffset":4256,"byteLength":1596,"target":34962,"byteStride":12},{"buffer":0,"byteOffset":5852,"byteLength":1064,"target":34962,"byteStride":8},{"buffer":0,"byteOffset":6916,"byteLength":468,"target":34963}],"buffers":[{"byteLength":7384,"uri":"data:application/octet-stream;base64,"}],"accessors":[{"bufferView":0,"componentType":5126,"count":133,"max":[4.375,2.5625,11.5],"min":[-4.375,-0.015691757202148438,-0.5],"type":"VEC3"},{"bufferView":1,"componentType":5126,"count":133,"max":[1,1,1],"min":[-1,-0.6536653637886047,-1],"type":"VEC3"},{"bufferView":2,"componentType":5126,"count":133,"max":[0.9884717464447021,0.9190300107002258],"min":[-9.941868661655917e-9,0],"type":"VEC2"},{"bufferView":3,"componentType":5126,"count":133,"max":[1,1,1],"min":[0.08228271454572678,0.020288564264774323,0.0003035269910469651],"type":"VEC3"},{"bufferView":4,"componentType":5126,"count":133,"max":[-1,0],"min":[-1,0],"type":"VEC2"},{"bufferView":5,"componentType":5123,"count":234,"max":[132],"min":[0],"type":"SCALAR"}],"materials":[{"pbrMetallicRoughness":{"metallicFactor":0,"roughnessFactor":0.9,"baseColorTexture":{"index":0}},"alphaMode":"MASK","alphaCutoff":0.01,"doubleSided":true,"extensions":{"KHR_materials_unlit":{}}}],"textures":[{"sampler":0,"source":0}],"samplers":[{"magFilter":9728,"minFilter":9728,"wrapS":10497,"wrapT":10497}],"images":[{"mimeType":"image/png","uri":"data:image/png;base64,"}],"meshes":[{"primitives":[{"mode":4,"attributes":{"POSITION":0,"NORMAL":1,"TEXCOORD_0":2,"COLOR_0":3,"_UVANIMATION":4},"extras":{"indexNormals":[{"x":0.5533971021346696,"y":-0.6332341289692754,"z":0.5410787237153879},{"x":0.6896142059393613,"y":-0.6194934489298914,"z":-0.37504681534386125},{"x":0.5254886666295192,"y":-0.6339212279790664,"z":0.5674553180308057},{"x":0.6896142059393613,"y":-0.6194934489298914,"z":-0.37504681534386125},{"x":0.5371104638892933,"y":-0.6322480775416407,"z":-0.5583679056191605},{"x":0.5254886666295192,"y":-0.6339212279790664,"z":0.5674553180308057},{"x":0.5254886666295192,"y":-0.6339212279790664,"z":0.5674553180308057},{"x":0.5371104638892933,"y":-0.6322480775416407,"z":-0.5583679056191605},{"x":0.7210730947556729,"y":-0.4714008619410667,"z":0.5077743784208647},{"x":0.5371104638892933,"y":-0.6322480775416407,"z":-0.5583679056191605},{"x":0.7935728235063544,"y":-0.35144287038624356,"z":-0.4967193197841516},{"x":0.7210730947556729,"y":-0.4714008619410667,"z":0.5077743784208647},{"x":1,"y":0,"z":0},{"x":1,"y":0,"z":0},{"x":0.9856051038291176,"y":-0.16906383204575215,"z":0},{"x":1,"y":0,"z":0},{"x":0.9258108792293064,"y":-0.37797742244741955,"z":0.00269889248836712},{"x":0.9856051038291176,"y":-0.16906383204575215,"z":0},{"x":0.6896142059393613,"y":-0.6194934489298914,"z":-0.37504681534386125},{"x":0.033093854546813455,"y":-0.40863629837492615,"z":-0.9120971288419192},{"x":0.5371104638892933,"y":-0.6322480775416407,"z":-0.5583679056191605},{"x":0.033093854546813455,"y":-0.40863629837492615,"z":-0.9120971288419192},{"x":1.3554101223372514e-9,"y":-0.4103990000414079,"z":-0.9119060591777051},{"x":0.5371104638892933,"y":-0.6322480775416407,"z":-0.5583679056191605},{"x":0.5371104638892933,"y":-0.6322480775416407,"z":-0.5583679056191605},{"x":1.3554101223372514e-9,"y":-0.4103990000414079,"z":-0.9119060591777051},{"x":0.28060866673179835,"y":-0.39861620233947886,"z":-0.8731345253667697},{"x":1.3554101223372514e-9,"y":-0.4103990000414079,"z":-0.9119060591777051},{"x":0,"y":-0.09669311698835216,"z":-0.9953142424014021},{"x":0.28060866673179835,"y":-0.39861620233947886,"z":-0.8731345253667697},{"x":-0.5337632004249463,"y":-0.6334199256630914,"z":0.5602464133263882},{"x":-0.6572564631142337,"y":-0.6536653360442909,"z":-0.3751473978967098},{"x":-0.5179260193281758,"y":-0.6279963200726464,"z":0.5808384116758158},{"x":-0.5337632004249463,"y":-0.6334199256630914,"z":0.5602464133263882},{"x":-0.5534968485428998,"y":-0.6129374244111354,"z":-0.5638696235915905},{"x":-0.6572564631142337,"y":-0.6536653360442909,"z":-0.3751473978967098},{"x":-0.7372202431710749,"y":-0.47247005345676985,"z":0.48298898708494203},{"x":-0.5534968485428998,"y":-0.6129374244111354,"z":-0.5638696235915905},{"x":-0.5337632004249463,"y":-0.6334199256630914,"z":0.5602464133263882},{"x":-0.7372202431710749,"y":-0.47247005345676985,"z":0.48298898708494203},{"x":-0.7935728904850877,"y":-0.35144272272978405,"z":-0.49671931724810053},{"x":-0.5534968485428998,"y":-0.6129374244111354,"z":-0.5638696235915905},{"x":0,"y":0,"z":-1},{"x":0,"y":0,"z":-1},{"x":0,"y":0,"z":-1},{"x":0,"y":0,"z":-1},{"x":0,"y":0,"z":-1},{"x":0,"y":0,"z":-1},{"x":-0.5534968485428998,"y":-0.6129374244111354,"z":-0.5638696235915905},{"x":-0.03309385234277505,"y":-0.40863630726461886,"z":-0.9120971249391429},{"x":-0.6572564631142337,"y":-0.6536653360442909,"z":-0.3751473978967098},{"x":-0.5534968485428998,"y":-0.6129374244111354,"z":-0.5638696235915905},{"x":1.3554101223372514e-9,"y":-0.4103990000414079,"z":-0.9119060591777051},{"x":-0.03309385234277505,"y":-0.40863630726461886,"z":-0.9120971249391429},{"x":0,"y":0,"z":-1},{"x":0,"y":0,"z":-1},{"x":0,"y":0,"z":-1},{"x":0,"y":0,"z":-1},{"x":0,"y":0,"z":-1},{"x":0,"y":0,"z":-1},{"x":-1,"y":0,"z":0},{"x":-1,"y":0,"z":0},{"x":-1,"y":0,"z":0},{"x":-1,"y":0,"z":0},{"x":-1,"y":0,"z":0},{"x":-1,"y":0,"z":0},{"x":0,"y":0,"z":-1},{"x":0,"y":0,"z":-1},{"x":0,"y":0,"z":-1},{"x":0,"y":0,"z":-1},{"x":0,"y":0,"z":-1},{"x":0,"y":0,"z":-1},{"x":0,"y":0,"z":-1},{"x":0,"y":0,"z":-1},{"x":0,"y":0,"z":-1},{"x":0,"y":0,"z":-1},{"x":0,"y":0,"z":-1},{"x":0,"y":0,"z":-1},{"x":0,"y":0,"z":-1},{"x":0,"y":0,"z":-1},{"x":0,"y":0,"z":-1},{"x":0,"y":0,"z":-1},{"x":0,"y":0,"z":-1},{"x":0,"y":0,"z":-1},{"x":0,"y":0,"z":-1},{"x":0,"y":0,"z":-1},{"x":0,"y":0,"z":-1},{"x":0,"y":0,"z":-1},{"x":0,"y":0,"z":-1},{"x":0,"y":0,"z":-1},{"x":0,"y":-0.09669311698835216,"z":-0.9953142424014021},{"x":0,"y":0,"z":-1},{"x":0,"y":0,"z":-1},{"x":0,"y":-0.09669311698835216,"z":-0.9953142424014021},{"x":-0.012139378246313313,"y":-0.27127786973215323,"z":-0.9624245180217396},{"x":0,"y":0,"z":-1},{"x":0,"y":0,"z":-1},{"x":0,"y":0,"z":-1},{"x":0,"y":0,"z":-1},{"x":0,"y":0,"z":-1},{"x":0,"y":0,"z":-1},{"x":0,"y":0,"z":-1},{"x":-0.2806087640859961,"y":-0.3986160544503856,"z":-0.8731345615954834},{"x":1.3554101223372514e-9,"y":-0.4103990000414079,"z":-0.9119060591777051},{"x":-0.5534968485428998,"y":-0.6129374244111354,"z":-0.5638696235915905},{"x":-0.2806087640859961,"y":-0.3986160544503856,"z":-0.8731345615954834},{"x":0,"y":-0.09669311698835216,"z":-0.9953142424014021},{"x":1.3554101223372514e-9,"y":-0.4103990000414079,"z":-0.9119060591777051},{"x":0,"y":0,"z":-1},{"x":0,"y":0,"z":-1},{"x":0,"y":0,"z":-1},{"x":0,"y":0,"z":-1},{"x":0,"y":0,"z":-1},{"x":0,"y":0,"z":-1},{"x":0,"y":0,"z":-1},{"x":0,"y":0,"z":-1},{"x":0,"y":-0.09669311698835216,"z":-0.9953142424014021},{"x":0,"y":0,"z":-1},{"x":0.012139379529374317,"y":-0.2712778777973548,"z":-0.9624245157322237},{"x":0,"y":-0.09669311698835216,"z":-0.9953142424014021},{"x":0.4091140628441807,"y":0.8744311679822337,"z":0.26076007371596277},{"x":0.3065647098072891,"y":0.931578189511198,"z":-0.19539742968578455},{"x":0.12299838345036886,"y":0.9415601321819388,"z":0.3135855786768993},{"x":0.4091140628441807,"y":0.8744311679822337,"z":0.26076007371596277},{"x":0.20455703142209036,"y":0.828355694565061,"z":-0.5215201474319255},{"x":0.3065647098072891,"y":0.931578189511198,"z":-0.19539742968578455},{"x":-0.4091140628441807,"y":0.8744311679822337,"z":-0.26076007371596277},{"x":-0.3065647098072891,"y":0.931578189511198,"z":0.19539742968578455},{"x":-0.12299838345036886,"y":0.9415601321819388,"z":-0.3135855786768993},{"x":-0.4091140628441807,"y":0.8744311679822337,"z":-0.26076007371596277},{"x":-0.20455703142209036,"y":0.828355694565061,"z":0.5215201474319255},{"x":-0.3065647098072891,"y":0.931578189511198,"z":0.19539742968578455},{"x":-0.20455703142209036,"y":0.828355694565061,"z":0.5215201474319255},{"x":0.12299838345036886,"y":0.9415601321819388,"z":0.3135855786768993},{"x":-0.3065647098072891,"y":0.931578189511198,"z":0.19539742968578455},{"x":-0.20455703142209036,"y":0.828355694565061,"z":0.5215201474319255},{"x":0.4091140628441807,"y":0.8744311679822337,"z":0.26076007371596277},{"x":0.12299838345036886,"y":0.9415601321819388,"z":0.3135855786768993},{"x":-0.9856051354056738,"y":-0.1690636479612431,"z":0},{"x":-1,"y":0,"z":0},{"x":-1,"y":0,"z":0},{"x":-0.9856051354056738,"y":-0.1690636479612431,"z":0},{"x":-0.9411003152516172,"y":-0.3381274857702439,"z":1.2619440863221087e-8},{"x":-1,"y":0,"z":0},{"x":0,"y":1,"z":0},{"x":0,"y":1,"z":0},{"x":0,"y":1,"z":0},{"x":0,"y":1,"z":0},{"x":0,"y":1,"z":0},{"x":0,"y":1,"z":0},{"x":0,"y":1,"z":0},{"x":0,"y":1,"z":0},{"x":0,"y":1,"z":0},{"x":0,"y":1,"z":0},{"x":0,"y":1,"z":0},{"x":0,"y":1,"z":0},{"x":0,"y":1,"z":0},{"x":0,"y":1,"z":0},{"x":0,"y":1,"z":0},{"x":0,"y":1,"z":0},{"x":0,"y":1,"z":0},{"x":0,"y":1,"z":0},{"x":0,"y":1,"z":0},{"x":-0.12299838345036886,"y":0.9415601321819388,"z":-0.3135855786768993},{"x":-0.3065647098072891,"y":0.931578189511198,"z":0.19539742968578455},{"x":0,"y":1,"z":0},{"x":0,"y":1,"z":0},{"x":-0.12299838345036886,"y":0.9415601321819388,"z":-0.3135855786768993},{"x":0.12299838345036886,"y":0.9415601321819388,"z":0.3135855786768993},{"x":0,"y":1,"z":0},{"x":0,"y":1,"z":0},{"x":0.12299838345036886,"y":0.9415601321819388,"z":0.3135855786768993},{"x":0.3065647098072891,"y":0.931578189511198,"z":-0.19539742968578455},{"x":0,"y":1,"z":0},{"x":0,"y":1,"z":0},{"x":0,"y":1,"z":0},{"x":0,"y":1,"z":0},{"x":0,"y":1,"z":0},{"x":0,"y":1,"z":0},{"x":0,"y":1,"z":0},{"x":0,"y":1,"z":0},{"x":0,"y":1,"z":0},{"x":0,"y":1,"z":0},{"x":0,"y":1,"z":0},{"x":0,"y":1,"z":0},{"x":0,"y":1,"z":0},{"x":0,"y":1,"z":0},{"x":0,"y":1,"z":0},{"x":0,"y":1,"z":0},{"x":0,"y":1,"z":0},{"x":0,"y":1,"z":0},{"x":0,"y":1,"z":0},{"x":0.20455703142209036,"y":0.828355694565061,"z":-0.5215201474319255},{"x":-0.12299838345036886,"y":0.9415601321819388,"z":-0.3135855786768993},{"x":0.3065647098072891,"y":0.931578189511198,"z":-0.19539742968578455},{"x":0.20455703142209036,"y":0.828355694565061,"z":-0.5215201474319255},{"x":-0.4091140628441807,"y":0.8744311679822337,"z":-0.26076007371596277},{"x":-0.12299838345036886,"y":0.9415601321819388,"z":-0.3135855786768993},{"x":0,"y":-0.09669311698835216,"z":0.9953142424014021},{"x":0,"y":0,"z":1},{"x":0,"y":0,"z":1},{"x":0,"y":-0.09669311698835216,"z":0.9953142424014021},{"x":0.004832078171554835,"y":-0.22477089894510294,"z":0.9743996582552532},{"x":0,"y":0,"z":1},{"x":0,"y":0,"z":1},{"x":0,"y":0,"z":1},{"x":0,"y":-0.09669311698835216,"z":0.9953142424014021},{"x":0,"y":0,"z":1},{"x":-0.012139410602286443,"y":-0.2712780731187637,"z":0.9624244602851694},{"x":0,"y":-0.09669311698835216,"z":0.9953142424014021},{"x":0.44604714063536727,"y":-0.46457028168301867,"z":0.7649943801806479},{"x":-0.007456681589591926,"y":-0.38820201763726864,"z":0.9215441342670601},{"x":0.5254886666295192,"y":-0.6339212279790664,"z":0.5674553180308057},{"x":0.44604714063536727,"y":-0.46457028168301867,"z":0.7649943801806479},{"x":0,"y":-0.09669311698835216,"z":0.9953142424014021},{"x":-0.007456681589591926,"y":-0.38820201763726864,"z":0.9215441342670601},{"x":-0.5337632004249463,"y":-0.6334199256630914,"z":0.5602464133263882},{"x":-0.007456681589591926,"y":-0.38820201763726864,"z":0.9215441342670601},{"x":-0.47027302952677735,"y":-0.471057949719117,"z":0.7462892774964199},{"x":-0.007456681589591926,"y":-0.38820201763726864,"z":0.9215441342670601},{"x":0,"y":-0.09669311698835216,"z":0.9953142424014021},{"x":-0.47027302952677735,"y":-0.471057949719117,"z":0.7462892774964199},{"x":-0.5179260193281758,"y":-0.6279963200726464,"z":0.5808384116758158},{"x":-0.033093715740840864,"y":-0.4086355823404843,"z":0.912097454674509},{"x":-0.5337632004249463,"y":-0.6334199256630914,"z":0.5602464133263882},{"x":-0.033093715740840864,"y":-0.4086355823404843,"z":0.912097454674509},{"x":-0.007456681589591926,"y":-0.38820201763726864,"z":0.9215441342670601},{"x":-0.5337632004249463,"y":-0.6334199256630914,"z":0.5602464133263882},{"x":0.5254886666295192,"y":-0.6339212279790664,"z":0.5674553180308057},{"x":0.021397281937011643,"y":-0.4648320718086654,"z":0.8851402721285321},{"x":0.5533971021346696,"y":-0.6332341289692754,"z":0.5410787237153879},{"x":0.5254886666295192,"y":-0.6339212279790664,"z":0.5674553180308057},{"x":-0.007456681589591926,"y":-0.38820201763726864,"z":0.9215441342670601},{"x":0.021397281937011643,"y":-0.4648320718086654,"z":0.8851402721285321}]},"indices":5,"material":0}]}],"extensionsUsed":["KHR_materials_unlit"]}