mtllib piranha_mesh.mtl
o piranha_mesh.obj
v -0.444692 0.562562 0.177373
v 0.243494 0.487487 0.290213
v 0.937937 0.421797 0.271801
v -1.228852 0.628253 0.008277
v -0.450949 -0.056306 0.113124
v 0.237238 -0.294043 0.169162
v 0.906655 -0.256506 0.199420
v 1.219468 0.037537 0.224988
v 1.554177 0.271647 0.146742
v -0.438436 0.981231 0.114956
v 0.243494 1.250250 0.199420
v 0.950449 1.100100 0.111959
v 1.319568 0.730981 0.085242
v 1.425923 -0.331581 0.093028
v 1.601098 -0.150150 0.174773
v -0.450949 -0.056306 -0.113124
v -0.438436 0.981231 -0.114956
v 0.237238 -0.294043 -0.169162
v 0.243494 1.250250 -0.199420
v 0.906655 -0.256506 -0.199420
v 0.950449 1.100100 -0.111959
v 1.219468 0.037537 -0.224988
v 1.319568 0.730981 -0.085242
v -1.228852 0.628253 -0.008277
v 1.554177 0.271647 -0.146742
v 1.425923 -0.331581 -0.093028
v 1.601098 -0.150150 -0.174773
v -0.444692 0.562562 -0.177373
v 0.243494 0.487487 -0.290213
v 0.937937 0.421797 -0.271801
v 1.424230 0.021409 0.185317
v 1.293541 0.127323 0.173197
v 1.370345 0.171466 0.157141
v 1.490082 0.075020 0.127624
v 1.402478 0.215127 0.156747
v 1.498435 0.246390 0.142366
v 1.547847 0.122496 0.054770
v 1.515861 0.245386 0.115225
v 1.537109 0.267273 0.030521
v 1.535241 0.109006 -0.025110
v 1.526120 0.294918 -0.005363
v 1.528075 0.274450 -0.093012
v 1.602354 0.016245 -0.048910
v 1.541735 -0.123238 -0.119780
v 1.523146 -0.133928 -0.020120
v 1.577781 0.028660 0.075872
v 1.548233 -0.131765 0.049726
v 1.513298 -0.109102 0.129545
v 1.474519 0.061733 -0.164473
v 1.434183 -0.102027 -0.164473
v 1.359313 -0.052031 -0.164473
v 1.440312 0.081354 0.134080
v 1.406854 -0.075199 0.174876
v 1.330875 -0.027333 0.181281
v 1.474519 0.061733 -0.164473
v 1.434183 -0.102027 -0.164473
v 1.359313 -0.052031 -0.164473
v 1.440312 0.081354 0.134080
v 1.406854 -0.075199 0.174876
v 1.330875 -0.027333 0.181281
v 1.602354 0.016245 -0.048910
v 1.541735 -0.123238 -0.119780
v 1.523146 -0.133928 -0.020120
v 1.577781 0.028660 0.075872
v 1.548233 -0.131765 0.049726
v 1.513298 -0.109102 0.129545
v 1.424230 0.021409 0.185317
v 1.293541 0.127323 0.173197
v 1.370345 0.171466 0.157141
v 1.490082 0.075020 0.127624
v 1.402478 0.215127 0.156747
v 1.498435 0.246390 0.142366
v 1.547847 0.122496 0.054770
v 1.515861 0.245386 0.115225
v 1.537109 0.267273 0.030521
v 1.535241 0.109006 -0.025110
v 1.526120 0.294918 -0.005363
v 1.528075 0.274450 -0.093012
v -0.531281 0.907155 -0.002277
v 0.306056 1.232480 -0.002277
v -0.725225 1.162662 -0.002277
v -0.125624 1.581831 -0.002277
v -1.144393 0.294044 -0.002277
v -0.475974 -0.356606 -0.002277
v -1.025525 0.468219 -0.002277
v -0.144393 -0.151149 -0.002277
v -1.056805 0.494243 -0.003699
v -0.950449 0.730982 -0.003699
v -1.257005 0.312812 -0.003699
v -1.060398 0.987266 -0.000871
v -1.460333 0.734609 -0.003699
v -1.275774 1.456706 -0.003699
v -1.660533 1.366490 -0.003699
v -1.563561 0.093844 -0.003699
v -1.666789 0.346722 -0.003699
v 0.169418 -0.306556 0.450423
v 0.668919 -0.181431 0.190981
v 0.225724 -0.007255 0.450423
v 0.675175 -0.094842 0.190981
v 0.169418 -0.306556 -0.450423
v 0.668919 -0.181431 -0.190981
v 0.225724 -0.007255 -0.450423
v 0.675175 -0.094842 -0.190981
v -0.531281 0.907155 -0.002277
v 0.306056 1.232480 -0.002277
v -0.725225 1.162662 -0.002277
v -0.125624 1.581831 -0.002277
v -1.056805 0.494243 -0.003699
v -0.950449 0.730982 -0.003699
v -1.257005 0.312812 -0.003699
v -1.060398 0.987266 -0.000871
v -1.460333 0.734609 -0.003699
v -1.275774 1.456706 -0.003699
v -1.660533 1.366490 -0.003699
v -1.563561 0.093844 -0.003699
v -1.666789 0.346722 -0.003699
v 0.169418 -0.306556 -0.450423
v 0.668919 -0.181431 -0.190981
v 0.225724 -0.007255 -0.450423
v 0.675175 -0.094842 -0.190981
v -1.144393 0.294044 -0.002277
v -0.475974 -0.356606 -0.002277
v -1.025525 0.468219 -0.002277
v -0.144393 -0.151149 -0.002277
v 0.169418 -0.306556 0.450423
v 0.668919 -0.181431 0.190981
v 0.225724 -0.007255 0.450423
v 0.675175 -0.094842 0.190981
v 1.424230 0.021409 -0.160688
v 1.293541 0.127323 -0.183113
v 1.370345 0.171466 -0.167057
v 1.424230 0.021409 -0.185317
v 1.293541 0.127323 -0.173197
v 1.370345 0.171466 -0.157141
v 1.490082 0.075020 -0.127624
v 1.402478 0.215127 -0.156747
v 1.498435 0.246390 -0.142366
v 1.490082 0.075020 -0.127624
v 1.402478 0.215127 -0.156747
v 1.498435 0.246390 -0.142366
vn -0.190999 0.004052 0.981582
vn -0.041057 0.021393 0.998928
vn 0.193957 0.116271 0.974095
vn -0.604912 0.086172 0.791616
vn -0.448790 -0.631857 0.631937
vn -0.144226 -0.737621 0.659631
vn 0.020793 -0.641440 0.766891
vn 0.517539 -0.113022 0.848163
vn 0.739768 -0.009530 0.672794
vn -0.368779 0.682508 0.631019
vn -0.053877 0.756083 0.652255
vn 0.450178 0.687211 0.570159
vn 0.754702 0.563220 0.336464
vn 0.225053 -0.887248 0.402669
vn 0.760189 -0.111085 0.640135
vn -0.435859 -0.625886 -0.646757
vn -0.359845 0.689832 -0.628206
vn -0.141398 -0.736195 -0.661834
vn -0.090275 0.737959 -0.668780
vn 0.014315 -0.648226 -0.761313
vn 0.393176 0.663887 -0.636134
vn 0.518198 -0.122205 -0.846485
vn 0.740456 0.554609 -0.379649
vn -0.604912 0.086172 -0.791616
vn 0.662188 -0.097130 -0.743016
vn 0.322431 -0.849062 -0.418488
vn 0.809928 -0.030372 -0.585742
vn -0.169980 0.024067 -0.985154
vn -0.065329 0.003043 -0.997859
vn 0.067599 0.019491 -0.997522
vn 0.081635 0.212167 0.973818
vn 0.081635 0.212167 0.973818
vn 0.081635 0.212167 0.973818
vn 0.177114 -0.092919 0.979794
vn 0.177114 -0.092919 0.979794
vn 0.177114 -0.092919 0.979794
vn 0.955898 0.116085 0.269783
vn 0.955898 0.116085 0.269783
vn 0.955898 0.116085 0.269783
vn 0.998794 0.047822 0.011111
vn 0.998794 0.047822 0.011111
vn 0.998794 0.047822 0.011111
vn 0.887491 -0.445529 0.117749
vn 0.887491 -0.445529 0.117749
vn 0.887491 -0.445529 0.117749
vn 0.865253 -0.231815 0.444521
vn 0.865253 -0.231815 0.444521
vn 0.865253 -0.231815 0.444521
vn 0.000000 0.000000 1.000000
vn 0.000000 0.000000 1.000000
vn 0.000000 0.000000 1.000000
vn 0.209398 0.204429 0.956222
vn 0.209398 0.204429 0.956222
vn 0.209398 0.204429 0.956222
vn 0.000000 0.000000 -1.000000
vn 0.000000 0.000000 -1.000000
vn 0.000000 0.000000 -1.000000
vn -0.209398 -0.204429 -0.956222
vn -0.209398 -0.204429 -0.956222
vn -0.209398 -0.204429 -0.956222
vn -0.887491 0.445529 -0.117749
vn -0.887491 0.445529 -0.117749
vn -0.887491 0.445529 -0.117749
vn -0.865253 0.231815 -0.444521
vn -0.865253 0.231815 -0.444521
vn -0.865253 0.231815 -0.444521
vn -0.081635 -0.212167 -0.973818
vn -0.081635 -0.212167 -0.973818
vn -0.081635 -0.212167 -0.973818
vn -0.177114 0.092919 -0.979794
vn -0.177114 0.092919 -0.979794
vn -0.177114 0.092919 -0.979794
vn -0.955898 -0.116085 -0.269783
vn -0.955898 -0.116085 -0.269783
vn -0.955898 -0.116085 -0.269783
vn -0.998794 -0.047822 -0.011111
vn -0.998794 -0.047822 -0.011111
vn -0.998794 -0.047822 -0.011111
vn 0.000000 0.000000 1.000000
vn 0.000000 0.000000 1.000000
vn 0.000000 0.000000 1.000000
vn 0.000000 0.000000 1.000000
vn 0.000000 0.000000 1.000000
vn 0.000000 0.000000 1.000000
vn 0.000000 0.000000 1.000000
vn 0.000000 0.000000 1.000000
vn -0.000223 -0.004540 0.999990
vn -0.000223 -0.004540 0.999990
vn -0.000111 -0.002270 0.999997
vn -0.000111 -0.002270 0.999997
vn -0.000074 -0.001513 0.999999
vn 0.000000 0.000000 1.000000
vn 0.000000 0.000000 1.000000
vn 0.000000 0.000000 1.000000
vn 0.000000 0.000000 1.000000
vn 0.494381 -0.035719 0.868511
vn 0.494381 -0.035719 0.868511
vn 0.494381 -0.035719 0.868511
vn 0.494381 -0.035719 0.868511
vn 0.476677 -0.089675 -0.874493
vn 0.476677 -0.089675 -0.874493
vn 0.476677 -0.089675 -0.874493
vn 0.476677 -0.089675 -0.874493
vn 0.000000 0.000000 -1.000000
vn 0.000000 0.000000 -1.000000
vn 0.000000 0.000000 -1.000000
vn 0.000000 0.000000 -1.000000
vn 0.000223 0.004540 -0.999990
vn 0.000223 0.004540 -0.999990
vn 0.000111 0.002270 -0.999997
vn 0.004328 0.001192 -0.999990
vn 0.002885 0.000795 -0.999996
vn 0.008432 -0.002155 -0.999962
vn 0.008432 -0.002155 -0.999962
vn 0.000000 0.000000 -1.000000
vn 0.000000 0.000000 -1.000000
vn -0.494381 0.035719 0.868511
vn -0.494381 0.035719 0.868511
vn -0.494381 0.035719 0.868511
vn -0.494381 0.035719 0.868511
vn 0.000000 0.000000 -1.000000
vn 0.000000 0.000000 -1.000000
vn 0.000000 0.000000 -1.000000
vn 0.000000 0.000000 -1.000000
vn -0.476677 0.089675 -0.874493
vn -0.476677 0.089675 -0.874493
vn -0.476677 0.089675 -0.874493
vn -0.476677 0.089675 -0.874493
vn 0.189917 0.026542 -0.981441
vn 0.189917 0.026542 -0.981441
vn 0.189917 0.026542 -0.981441
vn -0.081635 -0.212167 0.973818
vn -0.081635 -0.212167 0.973818
vn -0.081635 -0.212167 0.973818
vn 0.177114 -0.092919 -0.979794
vn 0.177114 -0.092919 -0.979794
vn 0.177114 -0.092919 -0.979794
vn -0.177114 0.092919 0.979794
vn -0.177114 0.092919 0.979794
vn -0.177114 0.092919 0.979794
vt 0.033406 0.563310
vt 0.214302 0.603381
vt 0.169858 0.816565
vt 0.019231 0.366247
vt 0.247129 0.418860
vt 0.082988 0.194129
vt 0.282352 0.233618
vt 0.193001 0.133066
vt 0.288682 0.060632
vt 0.336340 0.634253
vt 0.467882 0.473503
vt 0.480233 0.278360
vt 0.403421 0.154509
vt 0.097155 0.049883
vt 0.169183 0.019231
vt 0.533237 0.123973
vt 0.534366 0.021252
vt 0.599304 0.021253
vt 0.600428 0.123974
vt 0.610956 0.227936
vt 0.522706 0.227936
vt 0.273907 0.853915
vt 0.285130 0.768358
vt 0.363257 0.768358
vt 0.374480 0.853915
vt 0.356992 0.936086
vt 0.291395 0.936086
vt 0.653531 0.660383
vt 0.671594 0.610224
vt 0.712706 0.610224
vt 0.730769 0.660382
vt 0.648084 0.505875
vt 0.736215 0.505875
vt 0.654771 0.372527
vt 0.729529 0.372527
vt 0.667154 0.227718
vt 0.717147 0.227718
vt 0.690321 0.021627
vt 0.693978 0.021627
vt 0.541397 0.517868
vt 0.592268 0.517867
vt 0.568666 0.690263
vt 0.565003 0.690263
vt 0.522705 0.371871
vt 0.610955 0.371871
vt 0.033406 0.563310
vt 0.169858 0.816565
vt 0.214302 0.603381
vt 0.019231 0.366247
vt 0.247129 0.418860
vt 0.082988 0.194129
vt 0.282352 0.233618
vt 0.193001 0.133066
vt 0.288682 0.060632
vt 0.336340 0.634253
vt 0.467882 0.473503
vt 0.480233 0.278360
vt 0.403421 0.154509
vt 0.097155 0.049883
vt 0.169183 0.019231
vt 0.565047 0.846392
vt 0.612420 0.981697
vt 0.525238 0.989757
vt 0.927887 0.705843
vt 0.974127 0.849979
vt 0.875662 0.844254
vt 0.667496 0.759318
vt 0.717719 0.869445
vt 0.628772 0.879365
vt 0.787054 0.838032
vt 0.832961 0.972899
vt 0.745648 0.977614
vt 0.927887 0.705843
vt 0.974127 0.849979
vt 0.875662 0.844254
vt 0.787054 0.838032
vt 0.832961 0.972899
vt 0.745648 0.977614
vt 0.565047 0.846392
vt 0.612420 0.981697
vt 0.525238 0.989757
vt 0.787054 0.838032
vt 0.832961 0.972899
vt 0.745648 0.977614
vt 0.565047 0.846392
vt 0.525238 0.989757
vt 0.612420 0.981697
vt 0.787054 0.838032
vt 0.745648 0.977614
vt 0.832961 0.972899
vt 0.927887 0.705843
vt 0.875662 0.844254
vt 0.974127 0.849979
vt 0.787054 0.838032
vt 0.745648 0.977614
vt 0.832961 0.972899
vt 0.565047 0.846392
vt 0.525238 0.989757
vt 0.612420 0.981697
vt 0.927887 0.705843
vt 0.875662 0.844254
vt 0.974127 0.849979
vt 0.667496 0.759318
vt 0.628772 0.879365
vt 0.717719 0.869445
vt 0.787054 0.838032
vt 0.745648 0.977614
vt 0.832961 0.972899
vt 0.832234 0.431544
vt 0.968073 0.504777
vt 0.914578 0.686252
vt 0.827160 0.662041
vt 0.397327 0.646823
vt 0.505782 0.610897
vt 0.489598 0.897735
vt 0.427254 0.894107
vt 0.883786 0.390658
vt 0.770935 0.359434
vt 0.957499 0.268648
vt 0.789737 0.085744
vt 0.825629 0.019786
vt 0.912564 0.084120
vt 0.843415 0.193570
vt 0.995463 0.201895
vt 0.968559 0.136444
vt 0.044957 0.747978
vt 0.071083 0.744759
vt 0.109189 0.884499
vt 0.019231 0.903908
vt 0.044957 0.747978
vt 0.019231 0.903908
vt 0.109189 0.884499
vt 0.071083 0.744759
vt 0.832234 0.431544
vt 0.827160 0.662041
vt 0.914578 0.686252
vt 0.968073 0.504777
vt 0.883786 0.390658
vt 0.957499 0.268648
vt 0.770935 0.359434
vt 0.789737 0.085744
vt 0.843415 0.193570
vt 0.912564 0.084120
vt 0.825629 0.019786
vt 0.995463 0.201895
vt 0.968559 0.136444
vt 0.044957 0.747978
vt 0.071083 0.744759
vt 0.109189 0.884499
vt 0.019231 0.903908
vt 0.397327 0.646823
vt 0.427254 0.894107
vt 0.489598 0.897735
vt 0.505782 0.610897
vt 0.044957 0.747978
vt 0.019231 0.903908
vt 0.109189 0.884499
vt 0.071083 0.744759
vt 0.565047 0.846392
vt 0.525238 0.989757
vt 0.612420 0.981697
vt 0.565047 0.846392
vt 0.612420 0.981697
vt 0.525238 0.989757
vt 0.927887 0.705843
vt 0.875662 0.844254
vt 0.974127 0.849979
vt 0.927887 0.705843
vt 0.974127 0.849979
vt 0.875662 0.844254
g piranha_mdl
usemtl piranha_mtl
f 5/1/5 1/2/1 4/3/4 
f 6/4/6 2/5/2 1/2/1 5/1/5 
f 7/6/7 3/7/3 2/5/2 6/4/6 
f 8/8/8 9/9/9 3/7/3 7/6/7 
f 1/2/1 10/10/10 4/3/4 
f 2/5/2 11/11/11 10/10/10 1/2/1 
f 3/7/3 12/12/12 11/11/11 2/5/2 
f 9/9/9 13/13/13 12/12/12 3/7/3 
f 14/14/14 15/15/15 8/8/8 7/6/7 
f 13/16/13 9/17/9 25/18/25 23/19/23 
f 23/19/23 21/20/21 12/21/12 13/16/13 
f 8/22/8 15/23/15 27/24/27 22/25/22 
f 22/25/22 25/26/25 9/27/9 8/22/8 
f 15/28/15 14/29/14 26/30/26 27/31/27 
f 14/29/14 7/32/7 20/33/20 26/30/26 
f 7/32/7 6/34/6 18/35/18 20/33/20 
f 18/35/18 6/34/6 5/36/5 16/37/16 
f 5/36/5 4/38/4 24/39/24 16/37/16 
f 10/40/10 17/41/17 24/42/24 4/43/4 
f 17/41/17 10/40/10 11/44/11 19/45/19 
f 19/45/19 11/44/11 12/21/12 21/20/21 
f 16/46/16 24/47/24 28/48/28 
f 18/49/18 16/46/16 28/48/28 29/50/29 
f 20/51/20 18/49/18 29/50/29 30/52/30 
f 22/53/22 20/51/20 30/52/30 25/54/25 
f 28/48/28 24/47/24 17/55/17 
f 29/50/29 28/48/28 17/55/17 19/56/19 
f 30/52/30 29/50/29 19/56/19 21/57/21 
f 25/54/25 30/52/30 21/57/21 23/58/23 
f 26/59/26 20/51/20 22/53/22 27/60/27 
f 31/61/31 33/62/33 32/63/32 
f 34/64/34 36/65/36 35/66/35 
f 37/67/37 39/68/39 38/69/38 
f 40/70/40 42/71/42 41/72/41 
f 43/73/43 45/74/45 44/75/44 
f 46/76/46 48/77/48 47/78/47 
f 49/79/49 51/80/51 50/81/50 
f 52/82/52 54/83/54 53/84/53 
f 55/85/55 56/86/56 57/87/57 
f 58/88/58 59/89/59 60/90/60 
f 61/91/61 62/92/62 63/93/63 
f 64/94/64 65/95/65 66/96/66 
f 67/97/67 68/98/68 69/99/69 
f 70/100/70 71/101/71 72/102/72 
f 73/103/73 74/104/74 75/105/75 
f 76/106/76 77/107/77 78/108/78 
f 80/109/80 82/110/82 81/111/81 79/112/79 
f 84/113/84 86/114/86 85/115/85 83/116/83 
f 92/117/92 93/118/93 91/123/91 90/119/90 
f 95/120/95 94/121/94 89/122/89 91/123/91 
f 88/124/88 90/119/90 91/123/91 89/122/89 87/125/87 
f 97/126/97 99/127/99 98/128/98 96/129/96 
f 101/130/101 100/131/100 102/132/102 103/133/103 
f 105/134/105 104/135/104 106/136/106 107/137/107 
f 113/138/113 111/139/111 112/142/112 114/140/114 
f 116/141/116 112/142/112 110/143/110 115/144/115 
f 109/145/109 108/146/108 110/143/110 112/142/112 111/139/111 
f 118/147/118 120/148/120 119/149/119 117/150/117 
f 122/151/122 121/152/121 123/153/123 124/154/124 
f 126/155/126 125/156/125 127/157/127 128/158/128 
f 129/159/129 130/160/130 131/161/131 
f 132/162/132 134/163/134 133/164/133 
f 135/165/135 136/166/136 137/167/137 
f 138/168/138 140/169/140 139/170/139 
